<?xml version="1.0"?>
<svg version="1.1" xmlns="http://www.w3.org/2000/svg" width="400" height="50" style=""><path fill="#e94949" d="M16.68,46.07l17.115,0l0-1.785l-14.945,0l0-22.785l-2.17,0l0,24.57z M47.2994,21.5q-3.955,0-6.79,2.835q-2.87,2.87-2.87,6.825l0,5.285q0,3.885,2.87,6.755t6.79,2.87q3.955,0,6.825-2.87q2.835-2.835,2.835-6.755l0-5.285q0-3.99-2.835-6.825t-6.825-2.835z M54.7894,31.16l0,5.285q0,3.185-2.24,5.355q-2.205,2.1-5.25,2.1t-5.215-2.1q-2.24-2.17-2.24-5.355l0-5.285q0-2.94,2.24-5.25q2.24-2.24,5.215-2.24q2.94,0,5.25,2.24q2.24,2.31,2.24,5.25z M64.4438,23.635l16.695,0l0-2.17l-18.865,0l0,0.42l0,24.115l2.17,0l0-10.92l8.855,0l0-2.275l-8.855,0l0-9.17z M85.3332,46.035l2.205,0l0-24.605l-2.205,0l0,24.605z M105.202,46.035l2.205,0l0-24.605l-2.205,0l0,24.605z M113.1064,46l2.17,0l0-14.84q0-2.94,2.24-5.25q2.24-2.24,5.18-2.24t5.25,2.24q2.24,2.31,2.24,5.25l0,14.84l2.17,0l0-14.84q0-3.99-2.835-6.825t-6.825-2.835q-3.92,0-6.755,2.835t-2.835,6.825l0,14.84z M145.3708,21.465l-5.355,0l-1.33,0l-0.875,0l0,24.535l0.875,0l1.33,0l5.355,0q5.11,0,8.75-3.57q3.745-3.675,3.745-8.925q0-4.97-3.745-8.54q-3.675-3.5-8.75-3.5z M145.3708,43.795l-5.355,0l0-20.055l5.355,0q4.375,0,7.35,2.87q2.94,2.87,2.94,6.895q0,4.375-2.94,7.315q-2.975,2.975-7.35,2.975z M162.9702,46.035l2.205,0l0-24.605l-2.205,0l0,24.605z M179.7996,21.36q-3.92,0-6.58,2.835q-2.625,2.8-2.625,6.825l0,14.98l2.205,0l0-10.99l14.07,0l0,10.99l2.205,0l0-14.98q0-4.025-2.625-6.825q-2.73-2.835-6.65-2.835z M186.8696,32.84l-14.07,0l0-1.82q0-3.01,2.03-5.215q2.065-2.24,4.97-2.24t5.04,2.24q2.03,2.205,2.03,5.215l0,1.82z M194.389,46l2.17,0l0-14.84q0-2.94,2.24-5.25q2.24-2.24,5.18-2.24t5.25,2.24q2.24,2.31,2.24,5.25l0,14.84l2.17,0l0-14.84q0-3.99-2.835-6.825t-6.825-2.835q-3.92,0-6.755,2.835t-2.835,6.825l0,14.84z"/><path fill="#" d=""/></svg>
